<svg xmlns="http://www.w3.org/2000/svg" viewBox="0 0 96 96" role="img" aria-label="FIRE icon">
  <rect x="10" y="12" width="72" height="72" rx="16" fill="#ffffff" stroke="#dce6ef" stroke-width="2"/>
  <path d="M52 22c2 10-6 14-6 20 0 4 3 6 6 6 6 0 12-6 12-14 0-8-6-10-12-12z" fill="#e67e22" opacity="0.95"/>
  <path d="M44 34c0 6-8 10-8 20 0 10 8 18 20 18s20-8 20-18c0-8-4-14-10-18" fill="none" stroke="#1e3a5f" stroke-width="4" stroke-linecap="round" stroke-linejoin="round"/>
  <path d="M48 44c1 6-5 8-5 13 0 5 4 9 10 9s10-4 10-10c0-5-3-8-7-10" fill="#3a8d8d" opacity="0.15"/>
</svg>
