<svg xmlns="http://www.w3.org/2000/svg" viewBox="0 0 640 420" role="img" aria-label="FD laddering illustration">
  <defs>
    <linearGradient id="bg3" x1="0" y1="0" x2="1" y2="1">
      <stop offset="0" stop-color="#e8f6f6"/>
      <stop offset="1" stop-color="#f0f7fc"/>
    </linearGradient>
    <linearGradient id="accent3" x1="0" y1="0" x2="1" y2="1">
      <stop offset="0" stop-color="#3a8d8d"/>
      <stop offset="1" stop-color="#e67e22"/>
    </linearGradient>
  </defs>

  <rect x="10" y="10" width="620" height="400" rx="26" fill="url(#bg3)" stroke="#c8e6e6" stroke-width="2"/>

  <g transform="translate(96,84)">
    <rect x="0" y="0" width="448" height="252" rx="22" fill="#ffffff" stroke="#dce6ef" stroke-width="2"/>

    <g transform="translate(56,56)">
      <rect x="0" y="140" width="58" height="56" rx="14" fill="#3a8d8d" opacity="0.18"/>
      <rect x="76" y="112" width="58" height="84" rx="14" fill="#3a8d8d" opacity="0.24"/>
      <rect x="152" y="84" width="58" height="112" rx="14" fill="#3a8d8d" opacity="0.30"/>
      <rect x="228" y="56" width="58" height="140" rx="14" fill="#3a8d8d" opacity="0.36"/>
      <rect x="304" y="28" width="58" height="168" rx="14" fill="#3a8d8d" opacity="0.42"/>
    </g>

    <path d="M92 188c116-18 208-66 292-150" fill="none" stroke="url(#accent3)" stroke-width="10" stroke-linecap="round"/>
    <path d="M372 28l62 10-36 48" fill="none" stroke="url(#accent3)" stroke-width="10" stroke-linecap="round" stroke-linejoin="round"/>

    <rect x="56" y="26" width="180" height="14" rx="7" fill="#e8f3fa"/>
    <rect x="56" y="46" width="260" height="14" rx="7" fill="#e8f3fa"/>
  </g>
</svg>
