<svg xmlns="http://www.w3.org/2000/svg" viewBox="0 0 640 420" role="img" aria-label="FinYatra growth illustration">
  <defs>
    <linearGradient id="bg" x1="0" y1="0" x2="1" y2="1">
      <stop offset="0" stop-color="#e8f3fa"/>
      <stop offset="1" stop-color="#fdf9f0"/>
    </linearGradient>
    <linearGradient id="accent" x1="0" y1="0" x2="1" y2="1">
      <stop offset="0" stop-color="#3a8d8d"/>
      <stop offset="1" stop-color="#e67e22"/>
    </linearGradient>
  </defs>

  <path d="M110 310c70-70 130-120 210-140 90-22 160-6 220 44" fill="none" stroke="#1e3a5f" stroke-width="10" stroke-linecap="round" opacity="0.12"/>

  <g opacity="0.95">
    <rect x="140" y="236" width="44" height="96" rx="14" fill="#3a8d8d"/>
    <rect x="208" y="204" width="44" height="128" rx="14" fill="#3a8d8d" opacity="0.9"/>
    <rect x="276" y="170" width="44" height="162" rx="14" fill="#3a8d8d" opacity="0.8"/>
    <rect x="344" y="138" width="44" height="194" rx="14" fill="#3a8d8d" opacity="0.7"/>
  </g>

  <path d="M168 188c80 12 152 0 240-70" fill="none" stroke="url(#accent)" stroke-width="12" stroke-linecap="round"/>
  <path d="M402 92l64 12-38 50" fill="none" stroke="url(#accent)" stroke-width="12" stroke-linecap="round" stroke-linejoin="round"/>

  <g>
    <circle cx="496" cy="286" r="54" fill="#ffffff" stroke="#dce6ef" stroke-width="2"/>
    <path d="M476 260h38c12 0 22 8 22 18s-10 18-22 18h-38" fill="none" stroke="#1e3a5f" stroke-width="6" stroke-linecap="round" stroke-linejoin="round"/>
    <path d="M476 260v54" fill="none" stroke="#1e3a5f" stroke-width="6" stroke-linecap="round"/>
    <path d="M468 278h52" fill="none" stroke="#1e3a5f" stroke-width="6" stroke-linecap="round" opacity="0.85"/>
  </g>
</svg>
