<svg xmlns="http://www.w3.org/2000/svg" viewBox="0 0 640 420" role="img" aria-label="FinYatra  plan with clarity">
  <defs>
    <linearGradient id="accent" x1="0" y1="0" x2="1" y2="1">
      <stop offset="0" stop-color="#2563EB"/>
      <stop offset="1" stop-color="#38BDF8"/>
    </linearGradient>
    <linearGradient id="warm" x1="0" y1="0" x2="1" y2="0">
      <stop offset="0" stop-color="#2563EB"/>
      <stop offset="1" stop-color="#D97706"/>
    </linearGradient>
  </defs>

  <circle cx="200" cy="210" r="118" fill="#EFF6FF" stroke="#BFDBFE" stroke-width="2"/>
  <path d="M150 150h72c28 0 50 18 50 42s-22 42-50 42h-72" fill="none" stroke="#0F172A" stroke-width="10" stroke-linecap="round" stroke-linejoin="round"/>
  <path d="M150 150v120" fill="none" stroke="#0F172A" stroke-width="10" stroke-linecap="round"/>
  <path d="M138 186h96" fill="none" stroke="#0F172A" stroke-width="10" stroke-linecap="round"/>
  <path d="M138 222h96" fill="none" stroke="#0F172A" stroke-width="10" stroke-linecap="round"/>

  <path d="M300 300c70-80 150-130 250-170" fill="none" stroke="url(#warm)" stroke-width="12" stroke-linecap="round"/>
  <path d="M538 118l34 8-20 28" fill="none" stroke="url(#warm)" stroke-width="12" stroke-linecap="round" stroke-linejoin="round"/>

  <g transform="translate(430 250)">
    <rect x="0" y="0" width="150" height="96" rx="18" fill="#fff" stroke="#E2E8F0" stroke-width="2"/>
    <rect x="18" y="52" width="22" height="34" rx="6" fill="url(#accent)" opacity="0.85"/>
    <rect x="48" y="38" width="22" height="48" rx="6" fill="url(#accent)" opacity="0.7"/>
    <rect x="78" y="24" width="22" height="62" rx="6" fill="url(#accent)" opacity="0.55"/>
    <rect x="108" y="10" width="22" height="76" rx="6" fill="url(#accent)" opacity="0.4"/>
  </g>
</svg>
